<svg id="e5m3VjQvi1u1" xmlns="http://www.w3.org/2000/svg" xmlns:xlink="http://www.w3.org/1999/xlink" viewBox="0 0 300 300" shape-rendering="geometricPrecision" text-rendering="geometricPrecision"><g transform="translate(-19.991302-807.29594)"><g transform="translate(.061072-.312974)"><path d="M94.428539,967.64789c-1.886525-1.88652-2-3.33333-2-25.5s.113475-23.61348,2-25.5c1.50315-1.50315,3.30423-1.9921,7.250001-1.9682c9.02305.0547,9.19918.41382,9.5673,19.50919l.3173,16.45901h39.9327h39.9327v-15.36514c0-14.03031.18005-15.59404,2.07258-18c1.78421-2.26825,2.82774-2.63486,7.5-2.63486c4.09409,0,5.91875.49133,7.42742,2c1.88652,1.88652,2,3.33333,2,25.5s-.11348,23.61348-2,25.5c-1.95152,1.95152-3.33333,2-57,2s-55.048486-.0485-57.000001-2Zm-21.896408-67.5348c-2.052458-2.33762-3.103592-4.59108-3.103592-6.65361c0-3.47865,2.388047-6.01741,15.343231-16.31159l7.550976-6l.0529-16.57569c.05105-15.99987.133293-16.65121,2.367344-18.75c1.743095-1.63755,3.556319-2.17431,7.34501-2.17431c7.24136,0,8.70499,1.9554,9.34054,12.47886l.5,8.27908l17.95882-15.10624c15.86782-13.34737,18.37768-15.10624,21.55621-15.10624c3.17484,0,5.705,1.76625,21.54117,15.03751c9.86909,8.27063,26.7188,22.35528,37.4438,31.29921s20.2875,17.17919,21.25,18.30055c2.67725,3.11913,2.18082,7.257-1.35359,11.28247-5.98723,6.81908-5.98755,6.81891-40.66089-22.09832-16.90454-14.09822-32.37382-27.1915-34.37618-29.09618l-3.64066-3.46306-3.85934,3.43038c-2.12264,1.88671-12.40934,10.57598-22.85934,19.30948s-24.23515,20.28311-30.633667,25.6658c-9.886598,8.317-12.161187,9.7867-15.146408,9.7867-2.769141,0-4.169731-.74827-6.616334-3.5348Z" transform="translate(13.666773 40.268457)" fill="#0082fe"/></g></g></svg>
